<?xml version="1.0" standalone="no"?>
<!DOCTYPE svg PUBLIC "-//W3C//DTD SVG 20010904//EN"
 "http://www.w3.org/TR/2001/REC-SVG-20010904/DTD/svg10.dtd">
<svg version="1.0" xmlns="http://www.w3.org/2000/svg"
 width="40.000000pt" height="40.000000pt" viewBox="0 0 40.000000 40.000000"
 preserveAspectRatio="xMidYMid meet">
<metadata>
Created by potrace 1.15, written by Peter Selinger 2001-2017
</metadata>
<g transform="translate(0.000000,40.000000) scale(0.100000,-0.100000)"
fill="#000000" stroke="none">
<path d="M109 376 c-20 -14 -44 -40 -53 -59 -21 -46 -20 -115 2 -149 35 -55
127 -157 142 -157 14 -1 121 118 147 163 7 12 12 44 13 71 0 59 -32 115 -80
140 -46 24 -129 20 -171 -9z m173 -37 c60 -43 61 -137 2 -188 -47 -42 -117
-44 -163 -6 -125 106 26 289 161 194z"/>
</g>
</svg>
